# AST/ASF file generated using VICON BodyLanguage
# -----------------------------------------------
:version 1.10
:name VICON
:units
  mass 1.0
  length 0.45
  angle deg
:documentation
   .ast/.asf automatically generated from VICON data using
   VICON BodyBuilder and BodyLanguage model FoxedUp or BRILLIANT.MOD
:root
   order TX TY TZ RX RY RZ
   axis XYZ
   position 0 0 0  
   orientation 0 0 0 
:bonedata
  begin
     id 1 
     name lhipjoint
     direction 0.610259 -0.730986 0.305356 
     length 2.50941 
     axis 0 0 0  XYZ
  end
  begin
     id 2 
     name lfemur
     direction 0.34202 -0.939693 0  
     length 7.48822  
     axis 0 0 20  XYZ
    dof rx ry rz
    limits (-160.0 20.0)
           (-70.0 70.0)
           (-60.0 70.0)
  end
  begin
     id 3 
     name ltibia
     direction 0.34202 -0.939693 0   
     length 7.60141   
     axis 0 0 20   XYZ
    dof rx
    limits (-10.0 170.0)
  end
  begin
     id 4 
     name lfoot
     direction 0.0673488 -0.185039 0.980421   
     length 2.04049   
     axis -90 7.62852e-016 20   XYZ
    dof rx rz
    limits (-45.0 90.0)
           (-70.0 20.0)
  end
  begin
     id 5 
     name ltoes
     direction 1.5356e-011 -4.21729e-011 1   
     length 1.02897   
     axis -90 7.62852e-016 20   XYZ
    dof rx
    limits (-90.0 20.0)
  end
  begin
     id 6 
     name rhipjoint
     direction -0.57612 -0.754205 0.315056   
     length 2.43216  
     axis 0 0 0  XYZ 
  end
  begin
     id 7 
     name rfemur
     direction -0.34202 -0.939693 0   
     length 7.42799   
     axis 0 0 -20   XYZ
    dof rx ry rz
    limits (-160.0 20.0)
           (-70.0 70.0)
           (-70.0 60.0)
  end
  begin
     id 8 
     name rtibia
     direction -0.34202 -0.939693 0   
     length 7.69484   
     axis 0 0 -20   XYZ
    dof rx
    limits (-10.0 170.0)
 end
 begin
     id 9 
     name rfoot
     direction -0.111837 -0.30727 0.945028   
     length 2.15769  
     axis -90 -7.62852e-016 -20   XYZ
    dof rx rz
    limits (-45.0 90.0)
           (-20.0 70.0)
  end
  begin
     id 10 
     name rtoes
     direction -1.53539e-011 -4.21878e-011 1   
     length 1.07391   
     axis -90 -7.62852e-016 -20   XYZ
    dof rx
    limits (-90.0 20.0)
  end
  begin
     id 11 
     name lowerback
     direction 0.00552624 0.990109 -0.140195   
     length 2.12403   
     axis 0 0 0   XYZ
    dof rx ry rz
    limits (-20.0 45.0)
           (-30.0 30.0)
           (-30.0 30.0)
  end
  begin
     id 12 
     name upperback
     direction 0.00361898 0.999976 -0.00584723   
     length 2.13232   
     axis 0 0 0   XYZ
    dof rx ry rz
    limits (-20.0 45.0)
           (-30.0 30.0)
           (-30.0 30.0)
  end
  begin
     id 13 
     name thorax
     direction -0.000331275 0.998253 0.0590847   
     length 2.17688   
     axis 0 0 0   XYZ
    dof rx ry rz
    limits (-20.0 45.0)
           (-30.0 30.0)
           (-30.0 30.0)
  end
  begin
     id 14 
     name lowerneck
     direction -0.0561561 0.979832 0.19177   
     length 1.64159   
     axis 0 0 0   XYZ
    dof rx ry rz
    limits (-20.0 45.0)
           (-30.0 30.0)
           (-30.0 30.0)
  end
  begin
     id 15 
     name upperneck
     direction 0.0827153 0.979385 -0.184293   
     length 1.68939   
     axis 0 0 0   XYZ
    dof rx ry rz
    limits (-20.0 45.0)
           (-30.0 30.0)
           (-30.0 30.0)
  end
  begin
     id 16
     name head
     direction 0.0278583 0.995936 -0.0856488  
     length 1.70207  
     axis 0 0 0   XYZ
    dof rx ry rz
    limits (-20.0 45.0)
           (-30.0 30.0)
           (-30.0 30.0)
  end
  begin
     id 17 
     name lclavicle
     direction 0.950993 0.301131 -0.0702275  
     length 3.41652  
     axis 0 0 0   XYZ
    dof ry rz
    limits (-20.0 10.0)
           (0.0 20.0)
  end
  begin
     id 18 
     name lhumerus
     direction 1 -4.48981e-011 -3.9662e-029   
     length 5.32955   
     axis 180 -30 -90   XYZ
    dof rx ry rz
    limits (-60.0 90.0)
           (-90.0 90.0)
           (-90.0 90.0)
  end
  begin
     id 19
     name lradius
     direction 1 -4.48925e-011 -9.0549e-027   
     length 3.69232   
     axis 180 -30 -90   XYZ
    dof rx
    limits (-10.0 170.0)
  end
  begin
     id 20
     name lwrist
     direction 1 -4.49007e-011 -1.49005e-026   
     length 1.84616   
     axis 9.0955e-015 90 90   XYZ
    dof ry
    limits (-180.0 0.0)
 end
  begin
     id 21 
     name lhand
     direction 1 -4.49016e-011 -2.98023e-026   
     length 0.536598   
     axis 1.90115e-014 90 90   XYZ
    dof rx rz
    limits (-90.0 90.0)
           (-45.0 45.0)
  end
  begin
     id 22 
     name lfingers
     direction 1 -4.48924e-011 -5.9578e-026   
     length 0.432619   
     axis 3.80223e-014 90 90   XYZ
    dof rx
    limits (0.0 90.0)
  end
  begin
     id 23
     name lthumb
     direction 0.707107 -6.34947e-011 0.707107   
     length 0.621157   
     axis -90 45 -3.84942e-014   XYZ
    dof rx rz
    limits (-45.0 45.0)
           (-45.0 45.0)
  end
  begin
     id 24 
     name rclavicle
     direction -0.955495 0.276497 -0.102848   
     length 3.36357  
     axis 0 0 0   XYZ 
    dof ry rz
    limits (-10.0 20.0)
           (-20.0 0.0)
  end
  begin
     id 25 
     name rhumerus
     direction -1 -4.48961e-011 3.30983e-027  
     length 5.23431   
     axis 180 30 90   XYZ
    dof rx ry rz
    limits (-90.0 60.0)
           (-90.0 90.0)
           (-90.0 90.0)
  end
  begin
     id 26 
     name rradius
     direction -1 -4.48965e-011 -6.63263e-027   
     length 3.55301   
     axis 180 30 90   XYZ
    dof rx
    limits (-10.0 170.0)
  end
  begin
     id 27 
     name rwrist
     direction -1 -4.48942e-011 -1.48958e-026   
     length 1.77651   
     axis 9.0955e-015 -90 -90   XYZ
    dof ry
    limits (-180.0 0.0)
  end
  begin
     id 28
     name rhand
     direction -1 -4.48977e-011 -2.97966e-026   
     length 0.772522   
     axis 1.90115e-014 -90 -90   XYZ
    dof rx rz
    limits (-90.0 90.0)
           (-45.0 45.0)
  end
  begin
     id 29
     name rfingers
     direction -1 -4.49135e-011 -5.96389e-026   
     length 0.622827   
     axis 3.80223e-014 -90 -90   XYZ
    dof rx
    limits (0.0 90.0)
  end
  begin
     id 30
     name rthumb
     direction -0.707107 -6.34969e-011 0.707107   
     length 0.894259   
     axis -90 -45 3.84942e-014   XYZ
    dof rx rz
    limits (-45.0 45.0)
           (-45.0 45.0)
  end
:hierarchy
  begin
    root lhipjoint rhipjoint lowerback
    lhipjoint lfemur
    lfemur ltibia
    ltibia lfoot
    lfoot ltoes
    rhipjoint rfemur
    rfemur rtibia
    rtibia rfoot
    rfoot rtoes
    lowerback upperback
    upperback thorax
    thorax lowerneck lclavicle rclavicle
    lowerneck upperneck
    upperneck head
    lclavicle lhumerus
    lhumerus lradius
    lradius lwrist
    lwrist lhand lthumb
    lhand lfingers
    rclavicle rhumerus
    rhumerus rradius
    rradius rwrist
    rwrist rhand rthumb
    rhand rfingers
  end

#!OML:ASF F:\VICON\USERDATA\INSTALL\rory3\rory3.ASF
:FULLY-SPECIFIED
:DEGREES
21
root -12.4328 17.4479 -14.8405 -182.453 84.9154 -180.375
lowerback 11.9516 0.347932 -4.07039
upperback 0.438348 0.00131637 0.930017
thorax -6.25256 0.14826 3.28031
lowerneck -15.7953 -9.49438 -13.3291
upperneck 30.2315 -13.1188 11.8716
head 14.9185 -5.44796 4.82573
rclavicle 1.82012e-015 7.45443e-015
rhumerus -36.622 -16.9928 -73.3098
rradius 31.9941
rwrist 7.93166
rhand -14.6064 6.99893
rfingers 7.12502
rthumb 11.5444 -22.6631
lclavicle 1.82012e-015 7.45443e-015
lhumerus -38.5301 5.96157 79.8906
lradius 36.4631
lwrist -2.2904
lhand -15.0163 25.5246
lfingers 7.12502
lthumb 11.1491 55.2085
rfemur -8.86326 -2.69615 22.8183
rtibia 38.7035
rfoot -21.7894 -5.94486
rtoes 7.67621
lfemur -9.40304 -2.48761 -22.9071
ltibia 33.2497
lfoot -18.7954 -14.3327
ltoes 3.68246
22
root -12.4239 17.4443 -14.7787 -183.474 84.5646 -181.42
lowerback 11.9814 0.243475 -4.39351
upperback 0.435473 -0.182502 0.935177
thorax -6.2557 0.0679674 3.50087
lowerneck -15.787 -9.49823 -13.3333
upperneck 30.2613 -13.1345 11.8963
head 14.9361 -5.45147 4.83567
rclavicle -5.80824e-016 -1.52816e-015
rhumerus -36.6808 -17.5941 -73.1247
rradius 31.9913
rwrist 8.04233
rhand -14.3764 7.21247
rfingers 7.12502
rthumb 11.7662 -22.437
lclavicle -5.80824e-016 -1.52816e-015
lhumerus -38.4395 6.10142 79.8489
lradius 36.4061
lwrist -2.48529
lhand -15.0552 25.5968
lfingers 7.12502
lthumb 11.1115 55.2826
rfemur -9.11936 -3.12341 22.7627
rtibia 39.2494
rfoot -21.9828 -5.14674
rtoes 10.0364
lfemur -9.40007 -2.27145 -22.7874
ltibia 33.123
lfoot -18.5291 -15.1242
ltoes 4.73308
23
root -12.4168 17.443 -14.7156 -184.29 84.3279 -182.276
lowerback 12.0524 0.191002 -4.6212
upperback 0.393305 -0.294616 0.836511
thorax -6.32972 0.0208053 3.54568
lowerneck -15.6794 -9.49604 -13.2517
upperneck 30.231 -13.2128 12.0448
head 14.9189 -5.45934 4.87231
rclavicle 1.38078e-014 -7.40473e-015
rhumerus -36.8724 -18.2308 -73.1525
rradius 32.0393
rwrist 8.01704
rhand -14.7808 7.21483
rfingers 7.12502
rthumb 11.3761 -22.4566
lclavicle 1.38078e-014 -7.40473e-015
lhumerus -38.3174 6.00482 79.6613
lradius 36.2914
lwrist -2.50269
lhand -15.2208 25.7386
lfingers 7.12502
lthumb 10.9518 55.4329
rfemur -9.5426 -3.94344 22.7682
rtibia 39.946
rfoot -21.8667 -5.01496
rtoes 6.64364
lfemur -9.42247 -1.97319 -22.6207
ltibia 32.9595
lfoot -18.2297 -15.3997
ltoes 4.95877
24
root -12.4137 17.4508 -14.6512 -186.144 84.1576 -184.202
lowerback 12.1255 0.170965 -4.91628
upperback 0.351559 -0.377006 0.684033
thorax -6.40703 -0.0101418 3.56652
lowerneck -15.5454 -9.52554 -13.2873
upperneck 30.1974 -13.3578 12.3519
head 14.9338 -5.48991 4.98462
rclavicle -2.13383e-015 -1.2921e-014
rhumerus -36.9941 -18.8266 -73.2287
rradius 32.0001
rwrist 7.91723
rhand -15.2284 7.3076
rfingers 7.12502
rthumb 10.9444 -22.3871
lclavicle -2.13383e-015 -1.2921e-014
lhumerus -38.1445 5.61596 79.5394
lradius 36.2237
lwrist -2.34444
lhand -15.3827 25.8487
lfingers 7.12502
lthumb 10.7956 55.5513
rfemur -10.0603 -4.87637 22.5604
rtibia 40.7833
rfoot -21.8573 -4.19708
rtoes 4.32557
lfemur -9.44247 -1.82936 -22.5764
ltibia 32.7463
lfoot -18.1579 -15.1738
ltoes 3.05828
25
root -12.4134 17.4566 -14.5909 -190.412 83.9723 -188.566
lowerback 12.191 0.186219 -5.48296
upperback 0.321155 -0.450652 0.518883
thorax -6.46716 -0.0286995 3.72609
lowerneck -15.5066 -9.63326 -13.3878
upperneck 30.2343 -13.5429 12.4898
head 14.9997 -5.56284 5.02608
rclavicle -2.03754e-015 -1.19271e-015
rhumerus -37.0216 -19.326 -73.202
rradius 31.9398
rwrist 7.60029
rhand -15.3814 7.61357
rfingers 7.12502
rthumb 10.7969 -22.0889
lclavicle -2.03754e-015 -1.19271e-015
lhumerus -37.8727 5.67573 79.4065
lradius 35.9571
lwrist -2.72745
lhand -15.2992 25.5896
lfingers 7.12502
lthumb 10.8762 55.288
rfemur -10.6653 -5.54999 21.9945
rtibia 41.7564
rfoot -21.8507 -2.93198
rtoes 3.11699
lfemur -9.43568 -1.99674 -22.8746
ltibia 32.4852
lfoot -18.1868 -14.917
ltoes 0.397822
26
root -12.4141 17.4554 -14.5347 -194.094 83.8199 -192.325
lowerback 12.2297 0.197873 -5.96371
upperback 0.312066 -0.513798 0.372108
thorax -6.49027 -0.0454817 3.85388
lowerneck -15.4958 -9.73007 -13.3828
upperneck 30.2857 -13.6733 12.4206
head 15.0372 -5.62593 4.97011
rclavicle 1.82012e-015 -1.17283e-014
rhumerus -37.1127 -19.8888 -73.1431
rradius 31.9549
rwrist 7.53629
rhand -15.2846 7.52375
rfingers 7.12502
rthumb 10.8903 -22.1739
lclavicle 1.82012e-015 -1.17283e-014
lhumerus -37.5649 6.00366 79.1382
lradius 35.5535
lwrist -3.3607
lhand -14.9827 25.05
lfingers 7.12502
lthumb 11.1814 54.732
rfemur -11.2654 -5.79336 21.4516
rtibia 42.7898
rfoot -21.9177 -1.61271
rtoes 1.71394
lfemur -9.38463 -2.26064 -23.1304
ltibia 32.1882
lfoot -17.9827 -14.9945
ltoes -0.709799
27
root -12.4114 17.4552 -14.4762 -195.985 83.8246 -194.3
lowerback 12.2391 0.246505 -6.14367
upperback 0.257311 -0.489292 0.182892
thorax -6.55747 -0.0272634 3.75049
lowerneck -15.354 -9.81029 -13.289
upperneck 30.2792 -13.8355 12.4225
head 15.0225 -5.68811 4.92501
rclavicle -1.6524e-015 1.98785e-016
rhumerus -37.4015 -20.7005 -73.1185
rradius 31.9864
rwrist 7.77521
rhand -15.1787 7.20658
rfingers 7.12502
rthumb 10.9924 -22.4856
lclavicle -1.6524e-015 1.98785e-016
lhumerus -37.4018 5.68581 78.9334
lradius 35.3573
lwrist -3.34676
lhand -14.9203 24.9195
lfingers 7.12502
lthumb 11.2416 54.5983
rfemur -11.8624 -6.25552 21.0407
rtibia 43.8205
rfoot -22.2648 0.184892
rtoes -1.79283
lfemur -9.33291 -2.25496 -23.1381
ltibia 31.892
lfoot -17.9995 -14.9866
ltoes -2.47966
28
root -12.4073 17.4564 -14.4162 -196.782 83.8772 -195.068
lowerback 12.3505 0.29542 -6.1701
upperback 0.232537 -0.444978 0.0463621
thorax -6.65255 -0.00283139 3.61357
lowerneck -15.2689 -9.89278 -13.2842
upperneck 30.3806 -13.9972 12.4871
head 15.0865 -5.74687 4.92654
rclavicle -4.93234e-015 1.03368e-014
rhumerus -37.6781 -21.3718 -73.1063
rradius 32.0379
rwrist 7.89981
rhand -14.7733 7.17833
rfingers 7.12502
rthumb 11.3834 -22.4927
lclavicle -4.93234e-015 1.03368e-014
lhumerus -37.303 5.1373 78.9364
lradius 35.3605
lwrist -2.71771
lhand -15.4593 25.7887
lfingers 7.12502
lthumb 10.7218 55.4951
rfemur -12.3041 -6.6228 20.7467
rtibia 44.7957
rfoot -22.7862 2.12934
rtoes -5.2408
lfemur -9.17995 -2.05405 -22.9828
ltibia 31.6256
lfoot -18.2301 -14.7013
ltoes -6.19657
29
root -12.4038 17.462 -14.3618 -198.914 83.8977 -197.171
lowerback 12.421 0.319254 -6.36711
upperback 0.241517 -0.450624 -0.0430058
thorax -6.68173 0.000791001 3.63142
lowerneck -15.1288 -9.89204 -13.2912
upperneck 30.4017 -13.9897 12.4354
head 15.0581 -5.75564 4.91247
rclavicle -1.50455e-014 -1.66979e-014
rhumerus -37.7993 -21.5569 -73.1848
rradius 32.1024
rwrist 7.58197
rhand -13.8974 7.29251
rfingers 7.12502
rthumb 12.2281 -22.33
lclavicle -1.50455e-014 -1.66979e-014
lhumerus -37.1332 5.52048 78.5646
lradius 35.0913
lwrist -3.50267
lhand -14.4147 25.1135
lfingers 7.12502
lthumb 11.7292 54.7651
rfemur -12.7133 -6.56299 20.3093
rtibia 45.7385
rfoot -23.2035 3.71474
rtoes -7.59893
lfemur -8.99903 -2.05542 -23.0134
ltibia 31.349
lfoot -18.2068 -14.4265
ltoes -8.15769
30
root -12.4 17.4666 -14.3104 -200.988 84.0276 -199.274
lowerback 12.4233 0.380983 -6.51957
upperback 0.22017 -0.396029 -0.117294
thorax -6.71189 0.0328877 3.6288
lowerneck -14.9576 -9.89506 -13.3997
upperneck 30.3877 -13.984 12.4593
head 15.0249 -5.76979 4.94731
rclavicle -3.23025e-016 9.14409e-015
rhumerus -37.8763 -21.5651 -73.3156
rradius 32.0961
rwrist 7.2634
rhand -13.4292 7.33328
rfingers 7.12502
rthumb 12.6795 -22.2618
lclavicle -3.23025e-016 9.14409e-015
lhumerus -36.9745 5.78428 78.3136
lradius 34.8563
lwrist -3.69137
lhand -14.6148 25.0762
lfingers 7.12502
lthumb 11.5362 54.7387
rfemur -13.1317 -6.71756 19.8188
rtibia 46.624
rfoot -23.6264 5.46839
rtoes -10.1811
lfemur -8.84577 -2.10088 -23.0239
ltibia 31.0464
lfoot -18.0628 -14.173
ltoes -8.87932
31
root -12.3954 17.4714 -14.2591 -203.659 84.2029 -201.942
lowerback 12.4081 0.493219 -6.61894
upperback 0.240422 -0.265402 -0.234367
thorax -6.69655 0.0977053 3.53653
lowerneck -14.8842 -9.96502 -13.4845
upperneck 30.4028 -14.0579 12.4145
head 15.0323 -5.81968 4.92922
rclavicle -6.17475e-015 1.61016e-014
rhumerus -37.8641 -21.6386 -73.4739
rradius 31.9521
rwrist 7.33294
rhand -13.6509 7.31121
rfingers 7.12502
rthumb 12.4657 -22.297
lclavicle -6.17475e-015 1.61016e-014
lhumerus -36.7379 5.73304 78.2465
lradius 34.6864
lwrist -3.4594
lhand -15.4299 25.634
lfingers 7.12502
lthumb 10.7501 55.3389
rfemur -13.4967 -7.20208 19.1914
rtibia 47.427
rfoot -24.0396 7.73451
rtoes -11.8059
lfemur -8.60206 -2.1285 -23.0659
ltibia 30.6806
lfoot -17.9412 -13.9245
ltoes -9.53921
32
root -12.3894 17.4844 -14.2076 -205.918 84.2923 -204.167
lowerback 12.4469 0.578116 -6.61216
upperback 0.266843 -0.160478 -0.368262
thorax -6.70194 0.14702 3.37129
lowerneck -14.8852 -10.0692 -13.684
upperneck 30.5171 -14.183 12.467
head 15.135 -5.88659 4.96477
rclavicle -3.29237e-015 -9.93923e-016
rhumerus -37.9293 -21.805 -73.6047
rradius 31.9014
rwrist 7.52961
rhand -13.8584 7.28859
rfingers 7.12502
rthumb 12.2656 -22.3317
lclavicle -3.29237e-015 -9.93923e-016
lhumerus -36.5388 5.82462 78.0541
lradius 34.5836
lwrist -3.64921
lhand -15.0699 25.6491
lfingers 7.12502
lthumb 11.0974 55.3357
rfemur -13.8041 -7.58925 18.5873
rtibia 48.1101
rfoot -24.2794 9.5913
rtoes -12.1597
lfemur -8.30164 -2.34075 -23.0747
ltibia 30.2738
lfoot -17.5355 -13.8224
ltoes -8.02374
33
root -12.3821 17.4997 -14.1535 -207.961 84.3696 -206.127
lowerback 12.5062 0.635467 -6.64283
upperback 0.310966 -0.096449 -0.479964
thorax -6.69507 0.177342 3.25821
lowerneck -14.9826 -10.1889 -13.7965
upperneck 30.7601 -14.3142 12.3898
head 15.2994 -5.95516 4.93078
rclavicle -1.15544e-015 -2.38542e-015
rhumerus -37.9569 -21.8687 -73.8101
rradius 31.8426
rwrist 7.52218
rhand -14.1001 7.3985
rfingers 7.12502
rthumb 12.0326 -22.2356
lclavicle -1.15544e-015 -2.38542e-015
lhumerus -36.3676 6.14291 77.7062
lradius 34.4506
lwrist -4.10289
lhand -14.6392 25.435
lfingers 7.12502
lthumb 11.5127 55.0989
rfemur -13.9717 -7.58198 18.039
rtibia 48.629
rfoot -24.5336 10.3549
rtoes -11.9196
lfemur -7.90984 -2.67159 -23.0541
ltibia 29.8095
lfoot -16.9914 -13.6505
ltoes -5.83335
34
root -12.3735 17.5124 -14.1026 -209.578 84.499 -207.708
lowerback 12.5039 0.703362 -6.5897
upperback 0.327826 0.000408298 -0.515944
thorax -6.68579 0.221895 3.17239
lowerneck -14.9807 -10.2768 -13.9293
upperneck 30.9008 -14.3732 12.2569
head 15.3757 -6.00948 4.88861
rclavicle 1.19519e-014 -9.14409e-015
rhumerus -38.0157 -21.7604 -73.9448
rradius 31.8593
rwrist 7.52987
rhand -14.5104 7.36128
rfingers 7.12502
rthumb 11.6369 -22.2956
lclavicle 1.19519e-014 -9.14409e-015
lhumerus -36.0483 7.06205 77.3739
lradius 33.9242
lwrist -4.77015
lhand -15.0669 25.5493
lfingers 7.12502
lthumb 11.1002 55.2357
rfemur -14.1362 -7.57997 17.4879
rtibia 49.0014
rfoot -24.6461 10.5702
rtoes -10.6367
lfemur -7.57147 -2.70073 -22.9749
ltibia 29.304
lfoot -16.6943 -13.4852
ltoes -5.95626
35
root -12.3633 17.5269 -14.05 -210.143 84.5885 -208.232
lowerback 12.5411 0.731843 -6.39705
upperback 0.312492 0.0580396 -0.580702
thorax -6.72835 0.244477 2.98435
lowerneck -14.9136 -10.2662 -13.9536
upperneck 31.0134 -14.3312 12.1673
head 15.3985 -6.00484 4.87074
rclavicle 3.81418e-015 6.75868e-015
rhumerus -38.1509 -21.8888 -74.0426
rradius 31.8645
rwrist 8.00877
rhand -15.2742 7.26439
rfingers 7.12502
rthumb 10.9003 -22.4327
lclavicle 3.81418e-015 6.75868e-015
lhumerus -35.8043 8.04365 76.9631
lradius 33.4044
lwrist -5.55966
lhand -15.4607 25.9081
lfingers 7.12502
lthumb 10.7204 55.6146
rfemur -14.2146 -7.50891 16.9722
rtibia 49.2612
rfoot -24.6774 10.0954
rtoes -8.90884
lfemur -7.20744 -2.82555 -22.8097
ltibia 28.7653
lfoot -16.4334 -13.3326
ltoes -5.46737
